<svg xmlns="http://www.w3.org/2000/svg" viewBox="0 0 24 24" fill="none">
  <path d="M7 3h7l3 3v15a2 2 0 0 1-2 2H7a2 2 0 0 1-2-2V5a2 2 0 0 1 2-2Z" stroke="currentColor" stroke-width="1.5"/>
  <path d="M14 3v4a1 1 0 0 0 1 1h4" stroke="currentColor" stroke-width="1.5"/>
  <path d="M10 13.2c0-1.3 1-2.2 2.2-2.2 1.1 0 1.8.6 2 1.4.2.8-.1 1.4-.9 1.9-.7.4-1 1-.9 1.9" stroke="currentColor" stroke-width="1.5" stroke-linecap="round"/>
  <path d="M12 18h.01" stroke="currentColor" stroke-width="2.5" stroke-linecap="round"/>
</svg>
